<svg width="65" height="64" viewBox="0 0 65 64" fill="none" xmlns="http://www.w3.org/2000/svg">
<g clip-path="url(#clip0_16_350)">
<path d="M22.125 44.6667C22.2361 44.5 22.1944 44.3194 22 44.125C21.75 43.9306 21.5556 43.9028 21.4167 44.0417C21.3056 44.2083 21.3472 44.3889 21.5417 44.5833C21.7917 44.7778 21.9861 44.8056 22.125 44.6667ZM20.9583 42.9583C20.8194 42.7639 20.6528 42.7083 20.4583 42.7917C20.2917 42.9028 20.2917 43.0694 20.4583 43.2917C20.6528 43.5139 20.8194 43.5833 20.9583 43.5C21.125 43.3889 21.125 43.2083 20.9583 42.9583ZM19.25 41.2917C19.3056 41.1806 19.2361 41.0694 19.0417 40.9583C18.8472 40.9028 18.7361 40.9306 18.7083 41.0417C18.625 41.1806 18.6806 41.2917 18.875 41.375C19.0972 41.4306 19.2222 41.4028 19.25 41.2917ZM20.125 42.25C20.1806 42.2222 20.2014 42.1597 20.1875 42.0625C20.1736 41.9653 20.125 41.8889 20.0417 41.8333C19.875 41.6389 19.7361 41.5972 19.625 41.7083C19.5139 41.8194 19.5278 41.9722 19.6667 42.1667C19.8333 42.3333 19.9861 42.3611 20.125 42.25ZM23.7083 45.375C23.7639 45.1806 23.6389 45.0278 23.3333 44.9167C23.0833 44.8333 22.9028 44.8889 22.7917 45.0833C22.7361 45.2778 22.8611 45.4306 23.1667 45.5417C23.4167 45.625 23.5972 45.5694 23.7083 45.375ZM25.4583 45.5C25.4583 45.2778 25.2917 45.1667 24.9583 45.1667C24.6806 45.1667 24.5417 45.2778 24.5417 45.5C24.5417 45.7222 24.6944 45.8333 25 45.8333C25.3056 45.8333 25.4583 45.7222 25.4583 45.5ZM27.0833 45.2083C27.0278 45.0139 26.8472 44.9444 26.5417 45C26.2361 45.0556 26.1111 45.1806 26.1667 45.375C26.2222 45.5972 26.3889 45.6806 26.6667 45.625C26.9444 45.5694 27.0833 45.4306 27.0833 45.2083ZM53.8333 32C53.8333 26.1111 51.75 21.0833 47.5833 16.9167C43.4167 12.75 38.3889 10.6667 32.5 10.6667C26.6111 10.6667 21.5833 12.75 17.4167 16.9167C13.25 21.0833 11.1667 26.1111 11.1667 32C11.1667 36.6389 12.5278 40.8125 15.25 44.5208C17.9722 48.2292 21.4722 50.8056 25.75 52.25C26.25 52.3333 26.6181 52.2639 26.8542 52.0417C27.0903 51.8194 27.2083 51.5417 27.2083 51.2083C27.2083 49.7639 27.1944 48.4444 27.1667 47.25C27 47.2778 26.7847 47.3125 26.5208 47.3542C26.2569 47.3958 25.7639 47.4236 25.0417 47.4375C24.3194 47.4514 23.6528 47.3958 23.0417 47.2708C22.4306 47.1458 21.8264 46.8681 21.2292 46.4375C20.6319 46.0069 20.2222 45.4306 20 44.7083C19.3611 43.0694 18.5694 42.0417 17.625 41.625C17.5694 41.5972 17.5069 41.5486 17.4375 41.4792L17.1042 41.1458L16.8125 40.75L16.9792 40.4375L17.7917 40.2917C17.9583 40.2917 18.1667 40.3194 18.4167 40.375C18.6667 40.4306 19.0833 40.6458 19.6667 41.0208C20.25 41.3958 20.7083 41.8889 21.0417 42.5C21.4861 43.2778 22.0069 43.8611 22.6042 44.25C23.2014 44.6389 23.8056 44.8333 24.4167 44.8333C25.0278 44.8333 25.5556 44.7847 26 44.6875C26.4444 44.5903 26.8611 44.4583 27.25 44.2917C27.4444 42.9861 27.9028 42.0278 28.625 41.4167C27.2639 41.25 26.0694 40.9931 25.0417 40.6458C24.0139 40.2986 23 39.7569 22 39.0208C21 38.2847 20.2292 37.2292 19.6875 35.8542C19.1458 34.4792 18.875 32.8194 18.875 30.875C18.875 28.6806 19.6111 26.7778 21.0833 25.1667C20.4167 23.4444 20.4861 21.5556 21.2917 19.5C21.8194 19.3333 22.5764 19.4375 23.5625 19.8125C24.5486 20.1875 25.3889 20.5972 26.0833 21.0417L27.1667 21.7083C28.7778 21.2361 30.5556 21 32.5 21C34.4444 21 36.2222 21.2361 37.8333 21.7083C38.1389 21.5139 38.5347 21.2639 39.0208 20.9583C39.5069 20.6528 40.2778 20.2917 41.3333 19.875C42.3889 19.4583 43.1806 19.3333 43.7083 19.5C44.5139 21.5556 44.5833 23.4444 43.9167 25.1667C45.3889 26.7778 46.125 28.6806 46.125 30.875C46.125 32.4583 45.9306 33.8542 45.5417 35.0625C45.1528 36.2708 44.6597 37.2431 44.0625 37.9792C43.4653 38.7153 42.7222 39.3333 41.8333 39.8333C40.9444 40.3333 40.0764 40.6944 39.2292 40.9167C38.3819 41.1389 37.4306 41.3056 36.375 41.4167C37.3472 42.2778 37.8333 43.5972 37.8333 45.375C37.8333 46.4861 37.8264 47.7222 37.8125 49.0833C37.7986 50.4444 37.7917 51.1528 37.7917 51.2083C37.7917 51.5417 37.9097 51.8194 38.1458 52.0417C38.3819 52.2639 38.75 52.3333 39.25 52.25C43.5278 50.8056 47.0278 48.2292 49.75 44.5208C52.4722 40.8125 53.8333 36.6389 53.8333 32ZM64.5 12V52C64.5 55.3056 63.3264 58.1319 60.9792 60.4792C58.6319 62.8264 55.8056 64 52.5 64H12.5C9.19444 64 6.36806 62.8264 4.02083 60.4792C1.67361 58.1319 0.5 55.3056 0.5 52V12C0.5 8.69444 1.67361 5.86806 4.02083 3.52083C6.36806 1.17361 9.19444 0 12.5 0H52.5C55.8056 0 58.6319 1.17361 60.9792 3.52083C63.3264 5.86806 64.5 8.69444 64.5 12Z" fill="#023047"/>
</g>
<defs>
<clipPath id="clip0_16_350">
<rect width="64" height="64" fill="white" transform="translate(0.5)"/>
</clipPath>
</defs>
</svg>
