<svg width="65" height="64" viewBox="0 0 65 64" fill="none" xmlns="http://www.w3.org/2000/svg">
<path fill-rule="evenodd" clip-rule="evenodd" d="M0.500001 5.34692C0.500001 3.92883 1.06333 2.56882 2.06607 1.56608C3.06881 0.56334 4.42882 7.12818e-06 5.84691 7.12818e-06H59.1473C59.85 -0.00114066 60.5461 0.136336 61.1957 0.404565C61.8452 0.672794 62.4355 1.06651 62.9327 1.56317C63.4299 2.05983 63.8243 2.64968 64.0932 3.29894C64.3621 3.94821 64.5004 4.64415 64.5 5.34692V58.6473C64.5008 59.3502 64.3629 60.0463 64.0944 60.6959C63.8258 61.3455 63.4318 61.9357 62.935 62.4329C62.4381 62.9301 61.848 63.3244 61.1986 63.5933C60.5492 63.8622 59.8531 64.0004 59.1502 64H5.84691C5.1445 64 4.44897 63.8616 3.80006 63.5927C3.15116 63.3238 2.56159 62.9297 2.06505 62.4329C1.5685 61.9361 1.17471 61.3463 0.906175 60.6973C0.637639 60.0482 0.499619 59.3526 0.500001 58.6502V5.34692ZM25.8324 24.4015H34.4985V28.7535C35.7495 26.2516 38.9495 24 43.7582 24C52.9771 24 55.1618 28.9833 55.1618 38.1266V55.0633H45.8324V40.2095C45.8324 35.0022 44.5815 32.064 41.4047 32.064C36.9975 32.064 35.1647 35.232 35.1647 40.2095V55.0633H25.8324V24.4015ZM9.83236 54.6647H19.1647V24H9.83236V54.6618V54.6647ZM20.5 13.9986C20.5176 14.7976 20.3754 15.5921 20.0818 16.3355C19.7882 17.0788 19.349 17.756 18.7901 18.3274C18.2312 18.8987 17.5639 19.3527 16.8271 19.6626C16.0904 19.9725 15.2992 20.1321 14.5 20.1321C13.7008 20.1321 12.9096 19.9725 12.1729 19.6626C11.4362 19.3527 10.7688 18.8987 10.2099 18.3274C9.65098 17.756 9.21183 17.0788 8.91821 16.3355C8.62459 15.5921 8.4824 14.7976 8.5 13.9986C8.53454 12.4301 9.18185 10.9376 10.3033 9.84055C11.4248 8.74352 12.9312 8.12922 14.5 8.12922C16.0688 8.12922 17.5752 8.74352 18.6967 9.84055C19.8182 10.9376 20.4655 12.4301 20.5 13.9986Z" fill="#023047"/>
</svg>
