<svg width="90" height="90" viewBox="0 0 90 90" fill="none" xmlns="http://www.w3.org/2000/svg">
<circle cx="45" cy="45" r="43" fill="#F1FAEE" stroke="#1D3557" stroke-width="4"/>
<path d="M21 31.8C21 30.527 21.5057 29.3061 22.4059 28.4059C23.3061 27.5057 24.527 27 25.8 27H64.2C65.473 27 66.6939 27.5057 67.5941 28.4059C68.4943 29.3061 69 30.527 69 31.8V60.6C69 61.873 68.4943 63.0939 67.5941 63.9941C66.6939 64.8943 65.473 65.4 64.2 65.4H25.8C24.527 65.4 23.3061 64.8943 22.4059 63.9941C21.5057 63.0939 21 61.873 21 60.6V31.8Z" stroke="#1D3557" stroke-width="4" stroke-linecap="round" stroke-linejoin="round"/>
<path d="M21 36.6L39.0024 51.0024C40.7047 52.3644 42.8199 53.1065 45 53.1065C47.1801 53.1065 49.2953 52.3644 50.9976 51.0024L69 36.6" stroke="#1D3557" stroke-width="4" stroke-linejoin="round"/>
</svg>
