<svg width="60" height="30" viewBox="0 0 60 30" fill="none" xmlns="http://www.w3.org/2000/svg">
<rect x="1" y="1" width="58" height="28" rx="14" stroke="#1D3557" stroke-width="2"/>
<path d="M18 7.20666C18.1768 7.20666 18.3464 7.13642 18.4714 7.0114C18.5964 6.88637 18.6667 6.7168 18.6667 6.53999V4.27333C18.6667 4.09651 18.5964 3.92695 18.4714 3.80192C18.3464 3.6769 18.1768 3.60666 18 3.60666C17.8232 3.60666 17.6536 3.6769 17.5286 3.80192C17.4036 3.92695 17.3333 4.09651 17.3333 4.27333V6.53999C17.3333 6.7168 17.4036 6.88637 17.5286 7.0114C17.6536 7.13642 17.8232 7.20666 18 7.20666Z" fill="#1D3557"/>
<path d="M18 22.7933C17.8232 22.7933 17.6536 22.8636 17.5286 22.9886C17.4036 23.1136 17.3333 23.2832 17.3333 23.46V25.7267C17.3333 25.9035 17.4036 26.073 17.5286 26.1981C17.6536 26.3231 17.8232 26.3933 18 26.3933C18.1768 26.3933 18.3464 26.3231 18.4714 26.1981C18.5964 26.073 18.6667 25.9035 18.6667 25.7267V23.46C18.6667 23.2832 18.5964 23.1136 18.4714 22.9886C18.3464 22.8636 18.1768 22.7933 18 22.7933V22.7933Z" fill="#1D3557"/>
<path d="M11.5466 9.49333C11.6706 9.60602 11.8324 9.6679 12 9.66667C12.0877 9.66717 12.1747 9.65036 12.2559 9.61718C12.3371 9.584 12.411 9.53512 12.4733 9.47333C12.5358 9.41136 12.5854 9.33762 12.6192 9.25638C12.6531 9.17514 12.6705 9.08801 12.6705 9C12.6705 8.91199 12.6531 8.82485 12.6192 8.74361C12.5854 8.66238 12.5358 8.58864 12.4733 8.52667L10.8866 6.94667C10.7591 6.83745 10.5951 6.78038 10.4273 6.78686C10.2595 6.79334 10.1003 6.86289 9.98159 6.98162C9.86286 7.10035 9.79331 7.25951 9.78683 7.4273C9.78035 7.59508 9.83742 7.75913 9.94664 7.88667L11.5466 9.49333Z" fill="#1D3557"/>
<path d="M24.4533 20.5067C24.3912 20.4445 24.3174 20.3952 24.2362 20.3616C24.1549 20.3279 24.0679 20.3106 23.98 20.3106C23.8921 20.3106 23.805 20.3279 23.7238 20.3616C23.6426 20.3952 23.5688 20.4445 23.5067 20.5067C23.4445 20.5688 23.3952 20.6426 23.3616 20.7238C23.3279 20.8051 23.3106 20.8921 23.3106 20.98C23.3106 21.0679 23.3279 21.155 23.3616 21.2362C23.3952 21.3174 23.4445 21.3912 23.5067 21.4533L25.1133 23.0533C25.1751 23.1163 25.2487 23.1664 25.33 23.2008C25.4112 23.2351 25.4985 23.253 25.5867 23.2533C25.7625 23.2508 25.9302 23.1789 26.0533 23.0533C26.1775 22.9284 26.2472 22.7595 26.2472 22.5833C26.2472 22.4072 26.1775 22.2382 26.0533 22.1133L24.4533 20.5067Z" fill="#1D3557"/>
<path d="M10.2067 15C10.2067 14.8232 10.1364 14.6536 10.0114 14.5286C9.88639 14.4036 9.71682 14.3333 9.54001 14.3333H7.27334C7.09653 14.3333 6.92696 14.4036 6.80194 14.5286C6.67691 14.6536 6.60667 14.8232 6.60667 15C6.60667 15.1768 6.67691 15.3464 6.80194 15.4714C6.92696 15.5964 7.09653 15.6667 7.27334 15.6667H9.54001C9.71682 15.6667 9.88639 15.5964 10.0114 15.4714C10.1364 15.3464 10.2067 15.1768 10.2067 15Z" fill="#1D3557"/>
<path d="M28.7267 14.3333H26.46C26.2832 14.3333 26.1136 14.4036 25.9886 14.5286C25.8636 14.6536 25.7933 14.8232 25.7933 15C25.7933 15.1768 25.8636 15.3464 25.9886 15.4714C26.1136 15.5964 26.2832 15.6667 26.46 15.6667H28.7267C28.9035 15.6667 29.0731 15.5964 29.1981 15.4714C29.3231 15.3464 29.3933 15.1768 29.3933 15C29.3933 14.8232 29.3231 14.6536 29.1981 14.5286C29.0731 14.4036 28.9035 14.3333 28.7267 14.3333Z" fill="#1D3557"/>
<path d="M11.5467 20.5067L9.94668 22.1133C9.85306 22.2062 9.78908 22.3247 9.76283 22.4539C9.73657 22.5831 9.74922 22.7172 9.79917 22.8392C9.84912 22.9613 9.93413 23.0657 10.0435 23.1394C10.1528 23.2131 10.2815 23.2528 10.4133 23.2533C10.5016 23.253 10.5888 23.2351 10.6701 23.2008C10.7513 23.1664 10.8249 23.1163 10.8867 23.0533L12.4933 21.4533C12.6189 21.3278 12.6894 21.1575 12.6894 20.98C12.6894 20.8025 12.6189 20.6322 12.4933 20.5067C12.3678 20.3811 12.1975 20.3106 12.02 20.3106C11.8425 20.3106 11.6722 20.3811 11.5467 20.5067V20.5067Z" fill="#1D3557"/>
<path d="M24 9.66666C24.0877 9.66717 24.1747 9.65036 24.2559 9.61718C24.3372 9.584 24.411 9.53512 24.4733 9.47333L26.0733 7.86667C26.1975 7.74176 26.2672 7.57279 26.2672 7.39666C26.2672 7.22054 26.1975 7.05157 26.0733 6.92666C25.9484 6.8025 25.7795 6.7328 25.6033 6.7328C25.4272 6.7328 25.2582 6.8025 25.1333 6.92666L23.5267 8.52666C23.4642 8.58864 23.4146 8.66237 23.3807 8.74361C23.3469 8.82485 23.3295 8.91199 23.3295 9C23.3295 9.08801 23.3469 9.17514 23.3807 9.25638C23.4146 9.33762 23.4642 9.41136 23.5267 9.47333C23.589 9.53512 23.6628 9.584 23.7441 9.61718C23.8253 9.65036 23.9123 9.66717 24 9.66666Z" fill="#1D3557"/>
<path d="M18.0867 8.16666C16.7474 8.14948 15.4333 8.53089 14.3114 9.26243C13.1895 9.99397 12.3104 11.0426 11.7859 12.275C11.2615 13.5074 11.1153 14.8679 11.366 16.1836C11.6167 17.4993 12.253 18.7107 13.1939 19.6638C14.1348 20.617 15.3379 21.2688 16.6503 21.5365C17.9626 21.8042 19.3249 21.6756 20.564 21.1671C21.803 20.6586 22.8629 19.7932 23.6089 18.6808C24.3549 17.5684 24.7532 16.2593 24.7533 14.92C24.7622 13.1412 24.0654 11.4314 22.8158 10.1655C21.5661 8.89955 19.8654 8.18076 18.0867 8.16666V8.16666ZM18.0867 20.3333C17.0109 20.3505 15.9543 20.0472 15.0515 19.4619C14.1487 18.8766 13.4406 18.0358 13.0172 17.0467C12.5939 16.0576 12.4745 14.9648 12.6742 13.9076C12.874 12.8504 13.3839 11.8766 14.139 11.1101C14.8942 10.3437 15.8603 9.81935 16.9144 9.60385C17.9685 9.38835 19.0629 9.49146 20.0582 9.90004C21.0536 10.3086 21.9048 11.0042 22.5034 11.8982C23.1021 12.7921 23.4212 13.8441 23.42 14.92C23.4271 16.344 22.87 17.713 21.8706 18.7274C20.8711 19.7419 19.5107 20.3192 18.0867 20.3333V20.3333Z" fill="#1D3557"/>
</svg>
